# xmcd
#
# Track frame offsets:
#	150
#	15849
#	31200
#	48932
#	68130
#	87686
#	106496
#	129067
#	148950
#	165496
#	177153
#	191889
#	209818
#
# Disc length: 2943 seconds
# Revision: 0
# Processed by: cddbd v1.5.2PL0 Copyright (c) Steve Scherf et al.
# Submitted via: dBpowerAMP V12.0
#
DISCID=b50b7d0d
DTITLE=Mississippi Shakedown - 5TH
DYEAR=2012
DGENRE=Blues Rock
TTITLE0=We're Gonna Have a Party
TTITLE1=Deeper in Debt
TTITLE2=When You're Dead You're Dead
TTITLE3=Everybody Who Prays Don't go to Heaven
TTITLE4=Something Comes Into My Mind
TTITLE5=Exile on Chapel Street
TTITLE6=Something so Right
TTITLE7=Come to Memphis
TTITLE8=One Step Forward
TTITLE9=Lefty's Groove
TTITLE10=We Ain't Got the Blues
TTITLE11=I Believe My Time Ain't Long
TTITLE12=North Georgia
EXTD=
EXTT0=
EXTT1=
EXTT2=
EXTT3=
EXTT4=
EXTT5=
EXTT6=
EXTT7=
EXTT8=
EXTT9=
EXTT10=
EXTT11=
EXTT12=
PLAYORDER=
